<?xml version="1.0" encoding="UTF-8"?>
<svg xmlns="http://www.w3.org/2000/svg" version="1.1" viewBox="0 0 2140 879.9">
  <defs>
    <style>
      .cls-1 {
        fill: #053a57;
      }
    </style>
  </defs>
  <!-- Generator: Adobe Illustrator 28.7.1, SVG Export Plug-In . SVG Version: 1.2.0 Build 142)  -->
  <g>
    <g id="Camada_1">
      <path class="cls-1" d="M5,473.4c89.9-92.4,405.1-160.1,653.1-174.3,253-14.5,499.2-13,821.7,61.2,303.6,69.8,526-96.6,550.5-310.3,10.5-45.8,10.3-44,39.8-49.9,19.1,80,33.5,139.4,30.9,162.4,12.8,143.1,31.4,157,38.4,314,.5,1.9.7,3.8.6,5.8l-28.4,378.4c-.4,10.8-9.3,19.3-20.1,19.2l-2030.6-15.7c-10.6,0-19.2-8.3-19.8-18.9L0,487.3c-.3-5.2,1.3-10.2,4.9-13.9Z"/>
    </g>
  </g>
</svg>