<svg xmlns="http://www.w3.org/2000/svg" version="1.1"
    xmlns:xlink="http://www.w3.org/1999/xlink" width="512" height="512" x="0" y="0" viewBox="0 0 64 64" style="enable-background:new 0 0 512 512" xml:space="preserve" class="">
    <g>
        <path d="M10.92 19.684h23.675a1 1 0 0 0 0-2H10.92a1 1 0 0 0 0 2zM26.81 23.603H10.921a1 1 0 0 0 0 2h15.887a1 1 0 0 0 0-2zM10.922 29.52a1 1 0 0 0 0 2h14.676a1 1 0 0 0 0-2zM26.37 36.439a1 1 0 0 0-1-1H10.923a1 1 0 1 0 0 2H25.37a1 1 0 0 0 1-1zM16.839 13.474h11.837a1 1 0 0 0 0-2H16.84a1 1 0 0 0 0 2zM40.318 25.401a8.765 8.765 0 0 0-7.11 3.58 1 1 0 0 0 1.608 1.19 6.784 6.784 0 0 1 5.502-2.77 1 1 0 0 0 0-2z" fill="#ffffff" opacity="1" data-original="#ffffff" class=""></path>
        <path d="M58.06 41.36c.009-.034-5.639-4.328-5.559-4.382a12.578 12.578 0 0 0-2.11-10.094v-7.012a5.445 5.445 0 0 0-5.44-5.44h-3.438v-5.05a3.832 3.832 0 0 0-3.827-3.827H7.83a3.832 3.832 0 0 0-3.827 3.828V45.74a3.83 3.83 0 0 0 3.827 3.827h5.051v3.44a5.444 5.444 0 0 0 5.438 5.438h26.633a5.445 5.445 0 0 0 5.438-5.439v-5.055l1.879 1.47c5.396 3.877 10.7-4.056 5.791-8.062zm-7.51-4.819c-1.454 7.248-10.64 10.669-16.5 6.126-8.117-6.053-3.713-18.966 6.273-18.93 6.444-.201 11.837 6.48 10.227 12.804zm-5.598-20.108a3.443 3.443 0 0 1 3.439 3.439v4.827a12.42 12.42 0 0 0-6.879-2.89v-5.376zM6.003 45.74V9.383A1.83 1.83 0 0 1 7.83 7.555h29.856a1.83 1.83 0 0 1 1.827 1.828V21.77a12.473 12.473 0 0 0-9.25 5.024c-5.85 7.665-.602 19.223 8.982 19.885a1.822 1.822 0 0 1-1.56.887H7.83a1.829 1.829 0 0 1-1.827-1.827zm42.388 7.266a3.443 3.443 0 0 1-3.44 3.44H18.32a3.443 3.443 0 0 1-3.438-3.44v-3.439h22.805a3.822 3.822 0 0 0 3.698-2.906 12.19 12.19 0 0 0 5.248-1.651l1.759 1.376zm9.035-5.782a2.705 2.705 0 0 1-3.926.622l-5.179-4.053a11.91 11.91 0 0 0 3.513-4.76l4.996 3.902a3.18 3.18 0 0 1 .596 4.289z" fill="#ffffff" opacity="1" data-original="#ffffff" class=""></path>
    </g>
</svg>