<svg xmlns="http://www.w3.org/2000/svg" version="1.1"
    xmlns:xlink="http://www.w3.org/1999/xlink" width="512" height="512" x="0" y="0" viewBox="0 0 512 512.001" style="enable-background:new 0 0 512 512" xml:space="preserve" class="">
    <g>
        <g fill="#ffffff">
            <path d="M29.195 152.316c16.442 14.68 37.739 22.766 59.977 22.766 24.367 0 47.129-9.488 64.094-26.71l.007-.009c16.165-16.414 25.07-38.015 25.07-60.824C178.344 39.27 138.34 0 89.173 0S0 39.27 0 87.54c0 24.605 10.64 48.214 29.195 64.776zm14.485-7.59c10.218-15.847 28.433-25.59 48.199-25.59 18.543 0 35.75 8.594 46.242 22.766-13.535 11.707-30.691 18.11-48.95 18.11-16.581 0-32.519-5.403-45.491-15.285zM89.172 15.07c40.86 0 74.101 32.508 74.101 72.47 0 15.75-5.156 30.815-14.671 43.269-13.415-16.7-34.325-26.746-56.723-26.746-23.93 0-46.121 11.437-59.332 30.21-11.2-13-17.477-29.582-17.477-46.734 0-39.96 33.242-72.469 74.102-72.469zm0 0" fill="#ffffff" opacity="1" data-original="#ffffff" class=""></path>
            <path d="M90.645 93.457c14.703 0 26.664-14.258 26.664-31.777 0-17.524-11.961-31.782-26.664-31.782S63.977 44.156 63.977 61.68c0 17.523 11.96 31.777 26.668 31.777zm0-48.488c6.285 0 11.593 7.652 11.593 16.71 0 9.055-5.308 16.708-11.593 16.708-6.286 0-11.598-7.653-11.598-16.707 0-9.059 5.308-16.711 11.598-16.711zM361.453 152.316c16.442 14.68 37.742 22.766 59.977 22.766 24.37 0 47.136-9.488 64.101-26.719 16.168-16.414 25.07-38.015 25.07-60.824 0-48.27-40-87.539-89.171-87.539-49.168 0-89.168 39.27-89.168 87.54 0 24.605 10.64 48.214 29.191 64.776zm14.488-7.59c10.22-15.847 28.434-25.59 48.2-25.59 18.543 0 35.75 8.594 46.238 22.766-13.535 11.707-30.688 18.11-48.95 18.11-16.581 0-32.519-5.403-45.488-15.285zM421.43 15.07c40.86 0 74.101 32.508 74.101 72.47 0 15.75-5.156 30.815-14.672 43.269-13.414-16.7-34.32-26.743-56.718-26.743-23.93 0-46.121 11.434-59.332 30.207-11.2-12.996-17.477-29.578-17.477-46.734 0-39.96 33.242-72.469 74.098-72.469zm0 0" fill="#ffffff" opacity="1" data-original="#ffffff" class=""></path>
            <path d="M422.902 93.457c14.703 0 26.668-14.258 26.668-31.777 0-17.524-11.965-31.782-26.668-31.782s-26.664 14.258-26.664 31.782c0 17.523 11.961 31.777 26.664 31.777zm0-48.488c6.286 0 11.598 7.652 11.598 16.71 0 9.055-5.313 16.708-11.598 16.708S411.31 70.734 411.31 61.68c0-9.059 5.308-16.711 11.593-16.711zM421.43 336.918c-49.168 0-89.168 39.27-89.168 87.539 0 24.606 10.64 48.215 29.191 64.781C377.895 503.914 399.195 512 421.43 512c24.37 0 47.136-9.488 64.101-26.715 16.168-16.418 25.07-38.02 25.07-60.824 0-48.27-40-87.543-89.171-87.543zm-45.489 144.73c10.22-15.851 28.434-25.593 48.2-25.593 18.543 0 35.75 8.593 46.238 22.765-13.535 11.707-30.688 18.11-48.95 18.11-16.581 0-32.519-5.399-45.488-15.282zM480.86 467.73c-13.414-16.703-34.32-26.746-56.718-26.746-23.93 0-46.125 11.434-59.332 30.211-11.2-13-17.477-29.582-17.477-46.734 0-39.961 33.238-72.473 74.098-72.473s74.101 32.512 74.101 72.473c0 15.75-5.156 30.812-14.672 43.27zm0 0" fill="#ffffff" opacity="1" data-original="#ffffff" class=""></path>
            <path d="M422.902 366.816c-14.703 0-26.664 14.258-26.664 31.782 0 17.52 11.961 31.777 26.664 31.777s26.668-14.254 26.668-31.777c0-17.524-11.965-31.782-26.668-31.782zm0 48.489c-6.285 0-11.593-7.653-11.593-16.707 0-9.059 5.308-16.711 11.593-16.711s11.598 7.652 11.598 16.71c0 9.055-5.313 16.708-11.598 16.708zM89.172 336.918c-14.164 0-27.707 3.168-40.258 9.41a7.537 7.537 0 0 0-3.39 10.106 7.533 7.533 0 0 0 10.101 3.386c10.445-5.195 21.734-7.832 33.547-7.832 40.86 0 74.101 32.512 74.101 72.473 0 15.75-5.156 30.816-14.671 43.27-13.415-16.704-34.32-26.747-56.723-26.747-23.926 0-46.121 11.434-59.332 30.211-11.195-13-17.477-29.582-17.477-46.734 0-16.43 5.48-31.922 15.852-44.797a7.534 7.534 0 0 0-1.145-10.594 7.534 7.534 0 0 0-10.593 1.145C6.633 385.797 0 404.555 0 424.46c0 24.602 10.64 48.21 29.195 64.777C45.633 503.918 66.934 512 89.172 512c24.371 0 47.137-9.488 64.101-26.715 16.165-16.418 25.07-38.015 25.07-60.824 0-48.27-40.003-87.543-89.171-87.543zM43.68 481.648c10.218-15.851 28.433-25.593 48.199-25.593 18.543 0 35.75 8.593 46.242 22.765-13.539 11.707-30.691 18.11-48.95 18.11-16.581 0-32.519-5.399-45.491-15.282zm0 0" fill="#ffffff" opacity="1" data-original="#ffffff" class=""></path>
            <path d="M117.309 398.598c0-17.524-11.961-31.778-26.664-31.778s-26.668 14.254-26.668 31.778c0 17.523 11.964 31.777 26.668 31.777s26.664-14.254 26.664-31.777zm-38.262 0c0-9.059 5.312-16.707 11.598-16.707 6.285 0 11.593 7.648 11.593 16.707s-5.308 16.707-11.593 16.707c-6.286 0-11.598-7.653-11.598-16.707zM349.52 316.793a19.393 19.393 0 0 0 12.527-9.816c7.2-13.715 11.797-29.094 13.293-44.477a19.408 19.408 0 0 0-5.102-15.078 19.458 19.458 0 0 0-11.808-6.05c-1.957-15.852-7.547-30.93-16.407-44.27a19.44 19.44 0 0 0 5.516-11.825 19.405 19.405 0 0 0-5.125-15.062c-10.57-11.328-23.57-20.746-37.594-27.235a19.414 19.414 0 0 0-26.101 10.254c-15.758-3.593-32.367-3.43-48.074.512a19.438 19.438 0 0 0-10.391-10.82 19.414 19.414 0 0 0-15.918.21c-14.004 6.536-26.977 15.997-37.508 27.352a19.421 19.421 0 0 0 1.672 27.996c-8.89 13.88-14.27 29.547-15.79 45.996a19.412 19.412 0 0 0-12.097 6.375 19.437 19.437 0 0 0-4.765 15.172c1.851 15.66 6.707 30.559 14.425 44.282a19.43 19.43 0 0 0 12.793 9.449c3.985.867 8.106.449 11.793-1.133 10.856 13.562 25.094 24.316 41.059 31.016a19.42 19.42 0 0 0 15.648 19.605 120.507 120.507 0 0 0 23.192 2.246c7.828 0 15.664-.762 23.289-2.27a19.416 19.416 0 0 0 15.64-18.82c17.696-7.007 33.247-18.875 44.747-34.144a19.399 19.399 0 0 0 11.086.535zm-14.82-17.805a7.534 7.534 0 0 0-4.852 3.278c-11.082 17.007-27.754 29.793-46.942 36.011a7.521 7.521 0 0 0-4.39 3.746 7.517 7.517 0 0 0-.454 5.754l.34 1.051a4.312 4.312 0 0 1-.386 3.555 4.282 4.282 0 0 1-2.891 2.058c-13.293 2.625-27.34 2.637-40.656.02a4.277 4.277 0 0 1-2.887-2.05 4.322 4.322 0 0 1-.39-3.56l.535-1.648a7.537 7.537 0 0 0-4.715-9.45c-17.719-6.105-33.375-18-44.078-33.495a7.54 7.54 0 0 0-4.938-3.145 7.682 7.682 0 0 0-1.262-.11c-1.586 0-3.14.505-4.437 1.45l-2.535 1.844c-1.371 1.004-2.778.89-3.492.738a4.314 4.314 0 0 1-2.864-2.113c-6.738-11.98-10.976-24.988-12.594-38.664a4.297 4.297 0 0 1 1.067-3.395c.488-.547 1.555-1.465 3.254-1.465l4.699-.003a7.538 7.538 0 0 0 7.527-7.36c.434-18.46 6.496-36.012 17.532-50.758a7.529 7.529 0 0 0-1.605-10.61l-4.763-3.456a4.307 4.307 0 0 1-1.777-3.106 4.282 4.282 0 0 1 1.129-3.367c9.223-9.941 20.578-18.222 32.836-23.941a4.272 4.272 0 0 1 3.543-.047 4.326 4.326 0 0 1 2.414 2.652l1.937 5.934a7.534 7.534 0 0 0 9.523 4.82 88.107 88.107 0 0 1 27.599-4.437c8.73 0 17.382 1.289 25.714 3.824 3.934 1.203 8.102-.977 9.368-4.89l1.73-5.372a4.328 4.328 0 0 1 2.406-2.656 4.28 4.28 0 0 1 3.547.031c12.274 5.68 23.649 13.926 32.906 23.84a4.281 4.281 0 0 1 1.141 3.363c-.07.73-.39 2.106-1.77 3.11l-3.515 2.57a7.552 7.552 0 0 0-3.016 5.024 7.54 7.54 0 0 0 1.496 5.664c10.985 14.226 17.305 31.183 18.278 49.046.222 4.067 3.648 7.254 7.707 7.122l4.18-.102c1.71-.05 2.804.855 3.304 1.39a4.28 4.28 0 0 1 1.137 3.36c-1.309 13.46-5.332 26.926-11.633 38.934-.785 1.496-2.09 2.011-2.797 2.187a4.326 4.326 0 0 1-3.523-.644l-1.953-1.344a7.532 7.532 0 0 0-5.735-1.188zm0 0" fill="#ffffff" opacity="1" data-original="#ffffff" class=""></path>
            <path d="M255.727 190.215c-8.454 0-16.676 1.633-24.438 4.855h-.004c-.719.301-1.433.614-2.14.938a7.533 7.533 0 0 0-3.711 9.988 7.536 7.536 0 0 0 9.992 3.711c.539-.25 1.086-.488 1.637-.719h.003a48.44 48.44 0 0 1 18.66-3.703c26.942 0 48.86 21.918 48.86 48.86 0 26.94-21.918 48.859-48.86 48.859-26.937 0-48.855-21.918-48.855-48.86a48.657 48.657 0 0 1 7.477-25.953 45.806 45.806 0 0 1 1.133-1.715 7.533 7.533 0 0 0-1.922-10.48 7.53 7.53 0 0 0-10.48 1.922 61.722 61.722 0 0 0-1.481 2.242c-.004.004-.004.008-.008.012a63.669 63.669 0 0 0-9.79 33.969c0 35.25 28.677 63.93 63.927 63.93 35.253 0 63.93-28.68 63.93-63.93s-28.68-63.926-63.93-63.926zM233.598 46.707c.312 0 .632-.02.953-.062 4.129-.524 7.043-4.301 6.52-8.418a7.522 7.522 0 0 0-8.419-6.532 7.535 7.535 0 0 0-6.53 8.418 7.547 7.547 0 0 0 7.476 6.594zM191.574 56.379a7.533 7.533 0 0 0 7.133-9.953 7.526 7.526 0 0 0-9.547-4.715 7.532 7.532 0 0 0 2.414 14.668zM317.203 52.563c.676.18 1.36.273 2.02.273 3.304 0 6.332-2.184 7.254-5.516a7.539 7.539 0 0 0-5.243-9.285c-4.007-1.105-8.168 1.246-9.273 5.254-1.117 4.008 1.234 8.16 5.242 9.274zM276.184 45.5a7.533 7.533 0 0 0 8.047-6.98c.292-4.153-2.833-7.758-6.981-8.051-4.148-.301-7.758 2.836-8.047 6.984-.305 4.149 2.832 7.754 6.98 8.047zM462.398 325.059c.672.18 1.356.27 2.02.27a7.538 7.538 0 0 0 7.254-5.524 7.53 7.53 0 0 0-5.246-9.274c-4.008-1.117-8.156 1.235-9.274 5.242-1.113 4.008 1.239 8.168 5.246 9.286zM479.246 275.82c.293-4.152-2.832-7.757-6.98-8.047-4.149-.293-7.758 2.832-8.047 6.98-.293 4.15 2.832 7.759 6.98 8.048.184.02.364.02.543.02a7.53 7.53 0 0 0 7.504-7zM463.07 233.121a7.538 7.538 0 0 0 8.422 6.531c4.13-.523 7.051-4.3 6.528-8.43-.52-4.128-4.297-7.054-8.418-6.53a7.55 7.55 0 0 0-6.532 8.43zM460.871 197.688c.793 0 1.617-.133 2.41-.403a7.532 7.532 0 0 0 4.723-9.555c-1.336-3.937-5.617-6.058-9.555-4.722-3.937 1.336-6.047 5.617-4.71 9.554h-.012a7.547 7.547 0 0 0 7.144 5.125zM317.156 452.309a7.528 7.528 0 0 0-4.722 9.554 7.549 7.549 0 0 0 7.132 5.114c.805 0 1.618-.133 2.422-.403 3.938-1.336 6.047-5.605 4.723-9.554a7.537 7.537 0 0 0-9.555-4.711zM276.598 461.64a7.544 7.544 0 0 0-6.532 8.43 7.54 7.54 0 0 0 8.43 6.52c4.129-.524 7.043-4.29 6.52-8.418s-4.29-7.055-8.418-6.531zM193.934 455.723a7.543 7.543 0 0 0-9.274 5.246 7.534 7.534 0 0 0 7.266 9.554 7.553 7.553 0 0 0 7.262-5.527 7.539 7.539 0 0 0-5.254-9.273zM234.965 462.785c-4.149-.289-7.758 2.836-8.059 6.985a7.536 7.536 0 0 0 6.992 8.046c.18.02.364.02.532.02a7.537 7.537 0 0 0 7.515-7.004c.293-4.148-2.832-7.754-6.98-8.047zM31.902 232.469c-.304 4.148 2.82 7.754 6.98 8.047.18.007.352.02.532.02 3.918 0 7.234-3.036 7.516-7.005.293-4.148-2.832-7.754-6.98-8.047a7.523 7.523 0 0 0-8.048 6.985zM44.71 197.758c.685.191 1.356.27 2.02.27a7.529 7.529 0 0 0 7.262-5.516c1.106-4.008-1.246-8.168-5.254-9.282-4.008-1.105-8.156 1.247-9.273 5.254-1.113 4.008 1.238 8.157 5.246 9.274zM50.277 325.68c.793 0 1.618-.13 2.41-.403a7.53 7.53 0 0 0 4.723-9.554c-1.336-3.938-5.617-6.055-9.555-4.72-3.937 1.337-6.058 5.614-4.722 9.552a7.542 7.542 0 0 0 7.144 5.125zM33.129 277.066a7.519 7.519 0 0 0 7.465 6.579 7.52 7.52 0 0 0 7.473-8.48h.011c-.535-4.13-4.3-7.052-8.43-6.528-4.128.531-7.054 4.3-6.53 8.43zm0 0" fill="#ffffff" opacity="1" data-original="#ffffff" class=""></path>
        </g>
    </g>
</svg>